<mxfile host="app.diagrams.net" modified="2021-04-17T11:34:11.731Z" agent="5.0 (Windows NT 10.0; Win64; x64) AppleWebKit/537.36 (KHTML, like Gecko) Chrome/89.0.4389.128 Safari/537.36" etag="YLi4VWqzjolvcQnx4yJJ" version="14.6.0" type="github">
  <diagram id="94TvCWgWeJPaCqv3VTKz" name="Page-1">
    <mxGraphModel dx="2031" dy="1089" grid="0" gridSize="10" guides="1" tooltips="1" connect="1" arrows="1" fold="1" page="0" pageScale="1" pageWidth="827" pageHeight="1169" math="0" shadow="0">
      <root>
        <mxCell id="0" />
        <mxCell id="1" parent="0" />
        <mxCell id="9lptnBRRuSDMzmH1_6TX-1" value="" style="edgeStyle=orthogonalEdgeStyle;rounded=0;orthogonalLoop=1;jettySize=auto;html=1;fontSize=21;" parent="1" source="9lptnBRRuSDMzmH1_6TX-2" target="9lptnBRRuSDMzmH1_6TX-5" edge="1">
          <mxGeometry relative="1" as="geometry" />
        </mxCell>
        <mxCell id="9lptnBRRuSDMzmH1_6TX-2" value="交换机连接sysrepo" style="rounded=0;whiteSpace=wrap;html=1;fontSize=21;" parent="1" vertex="1">
          <mxGeometry x="255.25" y="87" width="229.5" height="62" as="geometry" />
        </mxCell>
        <mxCell id="9lptnBRRuSDMzmH1_6TX-4" value="N" style="edgeStyle=orthogonalEdgeStyle;rounded=0;orthogonalLoop=1;jettySize=auto;html=1;fontSize=21;entryX=0.5;entryY=0;entryDx=0;entryDy=0;" parent="1" source="9lptnBRRuSDMzmH1_6TX-5" target="vJzBY2i4rNa5CbY2uDrH-26" edge="1">
          <mxGeometry x="-0.9438" y="-5" relative="1" as="geometry">
            <mxPoint as="offset" />
            <mxPoint x="575" y="223" as="targetPoint" />
          </mxGeometry>
        </mxCell>
        <mxCell id="vJzBY2i4rNa5CbY2uDrH-5" value="Y" style="edgeStyle=orthogonalEdgeStyle;rounded=0;orthogonalLoop=1;jettySize=auto;html=1;fontSize=21;" edge="1" parent="1" source="9lptnBRRuSDMzmH1_6TX-5" target="vJzBY2i4rNa5CbY2uDrH-4">
          <mxGeometry x="-0.5996" relative="1" as="geometry">
            <mxPoint as="offset" />
          </mxGeometry>
        </mxCell>
        <mxCell id="9lptnBRRuSDMzmH1_6TX-5" value="session连接成功" style="rhombus;whiteSpace=wrap;html=1;fontSize=21;" parent="1" vertex="1">
          <mxGeometry x="242" y="180" width="256" height="86" as="geometry" />
        </mxCell>
        <mxCell id="vJzBY2i4rNa5CbY2uDrH-15" value="" style="edgeStyle=orthogonalEdgeStyle;rounded=0;orthogonalLoop=1;jettySize=auto;html=1;fontSize=21;" edge="1" parent="1" source="vJzBY2i4rNa5CbY2uDrH-1" target="9lptnBRRuSDMzmH1_6TX-2">
          <mxGeometry relative="1" as="geometry" />
        </mxCell>
        <mxCell id="vJzBY2i4rNa5CbY2uDrH-1" value="&lt;font style=&quot;font-size: 18px;&quot;&gt;开始&lt;/font&gt;" style="strokeWidth=1;html=1;shape=mxgraph.flowchart.terminator;whiteSpace=wrap;fontSize=18;" vertex="1" parent="1">
          <mxGeometry x="331.5" y="12" width="77" height="44" as="geometry" />
        </mxCell>
        <mxCell id="vJzBY2i4rNa5CbY2uDrH-31" value="" style="edgeStyle=orthogonalEdgeStyle;rounded=0;orthogonalLoop=1;jettySize=auto;html=1;fontSize=21;" edge="1" parent="1" source="vJzBY2i4rNa5CbY2uDrH-3" target="vJzBY2i4rNa5CbY2uDrH-28">
          <mxGeometry relative="1" as="geometry" />
        </mxCell>
        <mxCell id="vJzBY2i4rNa5CbY2uDrH-3" value="订阅列表中所有yang模型的变化" style="rounded=0;whiteSpace=wrap;html=1;fontSize=21;" vertex="1" parent="1">
          <mxGeometry x="255.25" y="408" width="229.5" height="62" as="geometry" />
        </mxCell>
        <mxCell id="vJzBY2i4rNa5CbY2uDrH-6" value="" style="edgeStyle=orthogonalEdgeStyle;rounded=0;orthogonalLoop=1;jettySize=auto;html=1;fontSize=21;" edge="1" parent="1" source="vJzBY2i4rNa5CbY2uDrH-4" target="vJzBY2i4rNa5CbY2uDrH-3">
          <mxGeometry relative="1" as="geometry" />
        </mxCell>
        <mxCell id="vJzBY2i4rNa5CbY2uDrH-4" value="获取订阅的yang模型&lt;br&gt;列表" style="rounded=0;whiteSpace=wrap;html=1;fontSize=21;" vertex="1" parent="1">
          <mxGeometry x="255.25" y="306" width="229.5" height="62" as="geometry" />
        </mxCell>
        <mxCell id="vJzBY2i4rNa5CbY2uDrH-19" value="" style="edgeStyle=orthogonalEdgeStyle;rounded=0;orthogonalLoop=1;jettySize=auto;html=1;fontSize=21;" edge="1" parent="1" source="vJzBY2i4rNa5CbY2uDrH-8" target="vJzBY2i4rNa5CbY2uDrH-18">
          <mxGeometry relative="1" as="geometry" />
        </mxCell>
        <mxCell id="vJzBY2i4rNa5CbY2uDrH-8" value="将交换机配置上传&lt;br&gt;到sysrepo数据库" style="rounded=0;whiteSpace=wrap;html=1;fontSize=21;" vertex="1" parent="1">
          <mxGeometry x="255.25" y="650" width="229.5" height="62" as="geometry" />
        </mxCell>
        <mxCell id="vJzBY2i4rNa5CbY2uDrH-17" value="Y" style="edgeStyle=orthogonalEdgeStyle;rounded=0;orthogonalLoop=1;jettySize=auto;html=1;fontSize=21;" edge="1" parent="1" source="vJzBY2i4rNa5CbY2uDrH-11" target="vJzBY2i4rNa5CbY2uDrH-16">
          <mxGeometry x="-0.5856" relative="1" as="geometry">
            <mxPoint as="offset" />
          </mxGeometry>
        </mxCell>
        <mxCell id="vJzBY2i4rNa5CbY2uDrH-24" value="N" style="edgeStyle=orthogonalEdgeStyle;rounded=0;orthogonalLoop=1;jettySize=auto;html=1;fontSize=21;entryX=0;entryY=0.5;entryDx=0;entryDy=0;" edge="1" parent="1" source="vJzBY2i4rNa5CbY2uDrH-11" target="vJzBY2i4rNa5CbY2uDrH-18">
          <mxGeometry x="-0.8716" relative="1" as="geometry">
            <mxPoint x="65.5" y="895.5" as="targetPoint" />
            <Array as="points">
              <mxPoint x="166" y="895" />
              <mxPoint x="166" y="779" />
            </Array>
            <mxPoint as="offset" />
          </mxGeometry>
        </mxCell>
        <mxCell id="vJzBY2i4rNa5CbY2uDrH-11" value="订阅的YANG模型参数&lt;br&gt;配置发生变化" style="rhombus;whiteSpace=wrap;html=1;fontSize=21;" vertex="1" parent="1">
          <mxGeometry x="227.75" y="843" width="284.5" height="105" as="geometry" />
        </mxCell>
        <mxCell id="vJzBY2i4rNa5CbY2uDrH-22" value="" style="edgeStyle=orthogonalEdgeStyle;rounded=0;orthogonalLoop=1;jettySize=auto;html=1;fontSize=21;entryX=1;entryY=0.5;entryDx=0;entryDy=0;" edge="1" parent="1" source="vJzBY2i4rNa5CbY2uDrH-16" target="vJzBY2i4rNa5CbY2uDrH-18">
          <mxGeometry relative="1" as="geometry">
            <mxPoint x="689.8235294117649" y="783.5" as="targetPoint" />
            <Array as="points">
              <mxPoint x="690" y="779" />
            </Array>
          </mxGeometry>
        </mxCell>
        <mxCell id="vJzBY2i4rNa5CbY2uDrH-16" value="交换机对整形器配置进行更改" style="rounded=0;whiteSpace=wrap;html=1;fontSize=21;" vertex="1" parent="1">
          <mxGeometry x="575" y="864.5" width="229.5" height="62" as="geometry" />
        </mxCell>
        <mxCell id="vJzBY2i4rNa5CbY2uDrH-20" value="" style="edgeStyle=orthogonalEdgeStyle;rounded=0;orthogonalLoop=1;jettySize=auto;html=1;fontSize=21;" edge="1" parent="1" source="vJzBY2i4rNa5CbY2uDrH-18" target="vJzBY2i4rNa5CbY2uDrH-11">
          <mxGeometry relative="1" as="geometry" />
        </mxCell>
        <mxCell id="vJzBY2i4rNa5CbY2uDrH-18" value="通过session监听sysrepo通知" style="rounded=0;whiteSpace=wrap;html=1;fontSize=21;" vertex="1" parent="1">
          <mxGeometry x="255.25" y="748" width="229.5" height="62" as="geometry" />
        </mxCell>
        <mxCell id="vJzBY2i4rNa5CbY2uDrH-25" value="&#xa;&#xa;&lt;span style=&quot;color: rgb(0, 0, 0); font-family: helvetica; font-size: 21px; font-style: normal; font-weight: 400; letter-spacing: normal; text-align: center; text-indent: 0px; text-transform: none; word-spacing: 0px; background-color: rgb(255, 255, 255); display: inline; float: none;&quot;&gt;交换机退出&lt;/span&gt;&#xa;&#xa;" style="rounded=0;whiteSpace=wrap;html=1;fontSize=21;" vertex="1" parent="1">
          <mxGeometry x="575" y="631" width="229.5" height="62" as="geometry" />
        </mxCell>
        <mxCell id="vJzBY2i4rNa5CbY2uDrH-27" value="" style="edgeStyle=orthogonalEdgeStyle;rounded=0;orthogonalLoop=1;jettySize=auto;html=1;fontSize=21;" edge="1" parent="1" source="vJzBY2i4rNa5CbY2uDrH-26" target="vJzBY2i4rNa5CbY2uDrH-25">
          <mxGeometry relative="1" as="geometry" />
        </mxCell>
        <mxCell id="vJzBY2i4rNa5CbY2uDrH-26" value="释放占用资源" style="rounded=0;whiteSpace=wrap;html=1;fontSize=21;" vertex="1" parent="1">
          <mxGeometry x="575" y="522" width="229.5" height="62" as="geometry" />
        </mxCell>
        <mxCell id="vJzBY2i4rNa5CbY2uDrH-29" value="Y" style="edgeStyle=orthogonalEdgeStyle;rounded=0;orthogonalLoop=1;jettySize=auto;html=1;fontSize=21;" edge="1" parent="1" source="vJzBY2i4rNa5CbY2uDrH-28" target="vJzBY2i4rNa5CbY2uDrH-8">
          <mxGeometry relative="1" as="geometry" />
        </mxCell>
        <mxCell id="vJzBY2i4rNa5CbY2uDrH-30" value="N" style="edgeStyle=orthogonalEdgeStyle;rounded=0;orthogonalLoop=1;jettySize=auto;html=1;fontSize=21;" edge="1" parent="1" source="vJzBY2i4rNa5CbY2uDrH-28" target="vJzBY2i4rNa5CbY2uDrH-26">
          <mxGeometry relative="1" as="geometry" />
        </mxCell>
        <mxCell id="vJzBY2i4rNa5CbY2uDrH-28" value="订阅成功" style="rhombus;whiteSpace=wrap;html=1;fontSize=21;" vertex="1" parent="1">
          <mxGeometry x="242" y="510" width="256" height="86" as="geometry" />
        </mxCell>
      </root>
    </mxGraphModel>
  </diagram>
</mxfile>
